<svg width="44" height="44" viewBox="0 0 44 44" fill="none" xmlns="http://www.w3.org/2000/svg">
<path d="M0 5.5C0 2.46243 2.46243 0 5.5 0H38.5C41.5376 0 44 2.46243 44 5.5V27.5C44 30.5376 41.5376 33 38.5 33H12.1391C11.4097 33 10.7103 33.2897 10.1945 33.8055L2.34727 41.6527C1.48107 42.5189 0 41.9054 0 40.6805V5.5ZM13.75 16.5C13.75 14.9812 12.5188 13.75 11 13.75C9.48122 13.75 8.25 14.9812 8.25 16.5C8.25 18.0188 9.48122 19.25 11 19.25C12.5188 19.25 13.75 18.0188 13.75 16.5ZM24.75 16.5C24.75 14.9812 23.5188 13.75 22 13.75C20.4812 13.75 19.25 14.9812 19.25 16.5C19.25 18.0188 20.4812 19.25 22 19.25C23.5188 19.25 24.75 18.0188 24.75 16.5ZM33 19.25C34.5188 19.25 35.75 18.0188 35.75 16.5C35.75 14.9812 34.5188 13.75 33 13.75C31.4812 13.75 30.25 14.9812 30.25 16.5C30.25 18.0188 31.4812 19.25 33 19.25Z" fill="black"/>
</svg>
