<svg width="50" height="50" viewBox="0 0 50 50" fill="none" xmlns="http://www.w3.org/2000/svg">
<path fill-rule="evenodd" clip-rule="evenodd" d="M32.8125 3.125C33.6754 3.125 34.375 3.82456 34.375 4.6875V17.1875C34.375 18.0504 33.6754 18.75 32.8125 18.75C31.9496 18.75 31.25 18.0504 31.25 17.1875V12.5H4.6875C3.82456 12.5 3.125 11.8004 3.125 10.9375C3.125 10.0746 3.82456 9.375 4.6875 9.375H31.25V4.6875C31.25 3.82456 31.9496 3.125 32.8125 3.125ZM37.5 10.9375C37.5 10.0746 38.1996 9.375 39.0625 9.375H45.3125C46.1754 9.375 46.875 10.0746 46.875 10.9375C46.875 11.8004 46.1754 12.5 45.3125 12.5H39.0625C38.1996 12.5 37.5 11.8004 37.5 10.9375ZM17.1875 17.1875C18.0504 17.1875 18.75 17.8871 18.75 18.75V23.4375H45.3125C46.1754 23.4375 46.875 24.1371 46.875 25C46.875 25.8629 46.1754 26.5625 45.3125 26.5625H18.75V31.25C18.75 32.1129 18.0504 32.8125 17.1875 32.8125C16.3246 32.8125 15.625 32.1129 15.625 31.25V18.75C15.625 17.8871 16.3246 17.1875 17.1875 17.1875ZM3.125 25C3.125 24.1371 3.82456 23.4375 4.6875 23.4375H10.9375C11.8004 23.4375 12.5 24.1371 12.5 25C12.5 25.8629 11.8004 26.5625 10.9375 26.5625H4.6875C3.82456 26.5625 3.125 25.8629 3.125 25ZM32.8125 31.25C33.6754 31.25 34.375 31.9496 34.375 32.8125V45.3125C34.375 46.1754 33.6754 46.875 32.8125 46.875C31.9496 46.875 31.25 46.1754 31.25 45.3125V40.625H4.6875C3.82456 40.625 3.125 39.9254 3.125 39.0625C3.125 38.1996 3.82456 37.5 4.6875 37.5H31.25V32.8125C31.25 31.9496 31.9496 31.25 32.8125 31.25ZM37.5 39.0625C37.5 38.1996 38.1996 37.5 39.0625 37.5H45.3125C46.1754 37.5 46.875 38.1996 46.875 39.0625C46.875 39.9254 46.1754 40.625 45.3125 40.625H39.0625C38.1996 40.625 37.5 39.9254 37.5 39.0625Z" fill="black"/>
</svg>
