<svg width="50" height="50" viewBox="0 0 50 50" fill="none" xmlns="http://www.w3.org/2000/svg">
<path d="M34.375 20.3125C34.375 19.4496 35.0746 18.75 35.9375 18.75H39.0625C39.9254 18.75 40.625 19.4496 40.625 20.3125V23.4375C40.625 24.3004 39.9254 25 39.0625 25H35.9375C35.0746 25 34.375 24.3004 34.375 23.4375V20.3125Z" fill="black"/>
<path d="M25 20.3125C25 19.4496 25.6996 18.75 26.5625 18.75H29.6875C30.5504 18.75 31.25 19.4496 31.25 20.3125V23.4375C31.25 24.3004 30.5504 25 29.6875 25H26.5625C25.6996 25 25 24.3004 25 23.4375V20.3125Z" fill="black"/>
<path d="M9.375 29.6875C9.375 28.8246 10.0746 28.125 10.9375 28.125H14.0625C14.9254 28.125 15.625 28.8246 15.625 29.6875V32.8125C15.625 33.6754 14.9254 34.375 14.0625 34.375H10.9375C10.0746 34.375 9.375 33.6754 9.375 32.8125V29.6875Z" fill="black"/>
<path d="M18.75 29.6875C18.75 28.8246 19.4496 28.125 20.3125 28.125H23.4375C24.3004 28.125 25 28.8246 25 29.6875V32.8125C25 33.6754 24.3004 34.375 23.4375 34.375H20.3125C19.4496 34.375 18.75 33.6754 18.75 32.8125V29.6875Z" fill="black"/>
<path d="M10.9375 0C11.8004 0 12.5 0.699555 12.5 1.5625V3.125H37.5V1.5625C37.5 0.699555 38.1996 0 39.0625 0C39.9254 0 40.625 0.699555 40.625 1.5625V3.125H43.75C47.2018 3.125 50 5.92322 50 9.375V43.75C50 47.2018 47.2018 50 43.75 50H6.25C2.79822 50 0 47.2018 0 43.75V9.375C0 5.92322 2.79822 3.125 6.25 3.125H9.375V1.5625C9.375 0.699555 10.0746 0 10.9375 0ZM3.125 12.5V43.75C3.125 45.4759 4.52411 46.875 6.25 46.875H43.75C45.4759 46.875 46.875 45.4759 46.875 43.75V12.5H3.125Z" fill="black"/>
</svg>
